# xmcd CD database file
#
# Track frame offsets:
#	150
#	21212
#	39424
#	59741
#	80925
#	100409
#	120139
#	135303
#	156950
#	179030
#
# Disc length: 2662 seconds
#
# Revision: 0
# Processed by: cddbd v1.5.1PL0 Copyright (c) Steve Scherf et al.
# Submitted via: CDex 1.51
#
DISCID=860a640a
DTITLE=Celia Cruz - Celia Mi Vida es Cantar
DYEAR=1900
DGENRE=Salsa
TTITLE0=El no te quiere na'
TTITLE1=Mi Vida es Cantar
TTITLE2=Patica de Chivo
TTITLE3=Me estan Hablando de el Cielo
TTITLE4=Cal y Arena
TTITLE5=Cal y Arena
TTITLE6=Siento la Nostalgia de Palmeras
TTITLE7=Canto a Lola Flores
TTITLE8=Sal si Puedes
TTITLE9=La Vida es una Carnaval
EXTD=
EXTT0=
EXTT1=
EXTT2=
EXTT3=
EXTT4=
EXTT5=
EXTT6=
EXTT7=
EXTT8=
EXTT9=
PLAYORDER=
